<?xml version="1.0" encoding="UTF-8"?><svg id="Layer_2" xmlns="http://www.w3.org/2000/svg" viewBox="0 0 554.28 554.28"><defs><style>.cls-1{fill:#00acee;}.cls-2{fill:#fff;}</style></defs><rect class="cls-1" width="554.28" height="554.28" rx="103.95" ry="103.95"/><path class="cls-2" d="M475.58,165.94c-13.51,7.34-27.85,10.9-40.33,12.51,18.94-18.07,29.97-45.43,29.97-45.43-16.56,11.53-34.88,17.03-48.7,19.65-24.18-25.94-63.65-33.49-96.4-15.97-31.4,16.8-47.06,51.52-41.11,84.77-41.87,.72-104.37-13.01-163.83-82.82,0,0-31.35,58.65,26.18,109.54-12.56-2.88-25.29-6.57-38.01-11.23,0,0-.27,67.93,71.88,80.47-13.39,.99-27.92,1.42-43.68,1.15,0,0,15.1,48.5,72.78,55.38-31.99,27.82-64.55,30.3-113.76,35.02,219.7,111.96,351.21-74.43,348.53-198.45,25.32-20.51,36.47-44.6,36.47-44.6Z"/></svg>