<?xml version="1.0" encoding="UTF-8"?><svg id="Layer_2" xmlns="http://www.w3.org/2000/svg" viewBox="0 0 554.28 554.28"><defs><style>.cls-1{fill:#fff;}.cls-2{fill:#1278f2;}</style></defs><rect class="cls-2" x="0" width="554.28" height="554.28" rx="103.95" ry="103.95"/><path class="cls-1" d="M335.15,554.28v-217.69h66.88l8.69-72.32h-75.57v-66.14c0-4.63,.91-9.12,2.7-13.34,1.73-4.08,4.2-7.75,7.35-10.9,3.15-3.15,6.81-5.62,10.89-7.35,4.23-1.79,8.72-2.69,13.34-2.69h41.29v-59.52c-11.03-1.34-47.81-4.3-78.96-4.3-10.92,0-21.36,2.11-31.04,6.27-9.25,3.98-17.5,9.7-24.53,16.99-6.95,7.21-12.39,15.65-16.17,25.06-3.87,9.63-5.84,19.88-5.84,30.46v85.45h-68.37v72.32h68.39v217.69h80.95Z"/></svg>