<?xml version="1.0" encoding="UTF-8"?><svg id="Layer_2" xmlns="http://www.w3.org/2000/svg" viewBox="0 0 554.28 554.28"><defs><style>.cls-1{fill:#fff;}.cls-2{fill:#2666b1;}</style></defs><rect class="cls-2" width="554.28" height="554.28" rx="103.95" ry="103.95"/><g><polygon class="cls-1" points="104.87 210.33 103.76 210.33 103.76 211.44 103.76 454.69 103.76 455.8 104.87 455.8 174.49 455.8 175.6 455.8 175.6 454.69 175.6 211.44 175.6 210.33 174.49 210.33 104.87 210.33"/><path class="cls-1" d="M433.37,230.02c-14.97-16.59-36.39-25.35-61.96-25.35-36.57,0-58.45,18.73-68.24,29.9l-5.83,6.64v-30.99h-1.11s-71.52,.1-71.52,.1h-1.11v245.48h73.86v-142.14c0-6.05,.51-14.54,2.96-20.58,7.46-19.88,23.48-31.73,42.86-31.73,27.85,0,43.19,20.61,43.19,58.05v136.41h71.85v-145.91c0-34.66-8.39-61.53-24.95-79.87Z"/><path class="cls-1" d="M139.65,94.05c-21.03,0-38.15,17.12-38.15,38.16s17.11,38.15,38.15,38.15,38.15-17.11,38.15-38.15-17.11-38.16-38.15-38.16Z"/></g></svg>