<?xml version="1.0" encoding="UTF-8"?><svg id="Layer_2" xmlns="http://www.w3.org/2000/svg" xmlns:xlink="http://www.w3.org/1999/xlink" viewBox="0 0 554.28 554.28"><defs><style>.cls-1{mask:url(#mask);}.cls-2{filter:url(#luminosity-noclip-2);}.cls-3{fill:#fff;}.cls-4{fill:url(#Unbenannter_Verlauf_6);mix-blend-mode:multiply;}.cls-5{fill:url(#Unbenannter_Verlauf_50);}.cls-6{fill:url(#Unbenannter_Verlauf_51);}.cls-7{mask:url(#mask-1);}</style><linearGradient id="Unbenannter_Verlauf_51" x1="358.95" y1="582.46" x2="195.33" y2="-28.18" gradientUnits="userSpaceOnUse"><stop offset="0" stop-color="#db1e81"/><stop offset=".25" stop-color="#d81f82"/><stop offset=".41" stop-color="#cf2285"/><stop offset=".54" stop-color="#c1288b"/><stop offset=".65" stop-color="#ac3194"/><stop offset=".76" stop-color="#923c9f"/><stop offset=".86" stop-color="#7149ac"/><stop offset=".95" stop-color="#4b59bc"/><stop offset="1" stop-color="#3264c7"/></linearGradient><filter id="luminosity-noclip-2" width="554.28" height="554.28" color-interpolation-filters="sRGB" filterUnits="userSpaceOnUse"><feFlood flood-color="#fff" result="bg"/><feBlend in="SourceGraphic" in2="bg"/></filter><filter id="luminosity-noclip-3" x="12497.97" y="-9730.58" width="-32766" height="32766" color-interpolation-filters="sRGB" filterUnits="userSpaceOnUse"><feFlood flood-color="#fff" result="bg"/><feBlend in="SourceGraphic" in2="bg"/></filter><mask id="mask-1" x="12497.97" y="-9730.58" width="-32766" height="32766" maskUnits="userSpaceOnUse"/><radialGradient id="Unbenannter_Verlauf_6" cx="178.59" cy="540.53" fx="178.59" fy="540.53" r="385.75" gradientUnits="userSpaceOnUse"><stop offset=".03" stop-color="#fff"/><stop offset=".11" stop-color="#f6f6f6"/><stop offset=".23" stop-color="#dedede"/><stop offset=".38" stop-color="#b8b8b8"/><stop offset=".55" stop-color="#838383"/><stop offset=".74" stop-color="#3f3f3f"/><stop offset=".91" stop-color="#000"/></radialGradient><mask id="mask" width="554.28" height="554.28" maskUnits="userSpaceOnUse"><g class="cls-2"><g class="cls-7"><rect class="cls-4" x="0" width="554.28" height="554.28" rx="103.95" ry="103.95"/></g></g></mask><radialGradient id="Unbenannter_Verlauf_50" cx="178.59" cy="540.53" fx="178.59" fy="540.53" r="385.75" gradientUnits="userSpaceOnUse"><stop offset=".03" stop-color="#ffc74b"/><stop offset=".18" stop-color="#ffbe48"/><stop offset=".42" stop-color="#ffa642"/><stop offset=".72" stop-color="#ff8039"/><stop offset=".91" stop-color="#ff6432"/></radialGradient></defs><rect class="cls-6" x="0" width="554.28" height="554.28" rx="103.95" ry="103.95"/><g class="cls-1"><rect class="cls-5" x="0" width="554.28" height="554.28" rx="103.95" ry="103.95"/></g><path class="cls-3" d="M385.33,191.56c-12.49,0-22.61-10.12-22.61-22.61s10.12-22.61,22.61-22.61,22.61,10.12,22.61,22.61-10.12,22.61-22.61,22.61Zm-108.19-84.15c-29.49,0-58.98,.31-88.46,.94-42.88,1.03-79.3,37.45-80.33,80.33-1.25,58.98-1.25,117.95,0,176.93,1.03,42.88,37.45,79.3,80.33,80.33,29.49,.63,58.98,.94,88.46,.94s58.98-.31,88.46-.94c42.88-1.03,79.3-37.45,80.33-80.33,1.25-58.98,1.25-117.95,0-176.93-1.03-42.88-37.45-79.3-80.33-80.33-29.49-.63-58.98-.94-88.46-.94m0-31.02c29.57,0,59.56,.32,89.12,.95h.04s.04,0,.04,0c28.74,.69,56.1,12.6,77.05,33.55,20.94,20.94,32.85,48.31,33.54,77.05v.04s0,.04,0,.04c1.26,59.14,1.26,119.11,0,178.25v.04s0,.04,0,.04c-.69,28.74-12.6,56.1-33.54,77.05-20.94,20.94-48.3,32.86-77.04,33.55h-.04s-.04,0-.04,0c-29.57,.63-59.56,.95-89.12,.95s-59.55-.32-89.12-.95h-.04s-.04,0-.04,0c-28.74-.69-56.1-12.6-77.05-33.55-20.94-20.94-32.86-48.3-33.55-77.05v-.04s0-.04,0-.04c-1.26-59.14-1.26-119.11,0-178.25v-.04s0-.04,0-.04c.69-28.74,12.6-56.1,33.55-77.05,20.94-20.94,48.31-32.86,77.05-33.55h.04s.04,0,.04,0c29.57-.63,59.55-.95,89.12-.95h0Zm0,128.69c-39.56,0-71.64,32.26-71.64,72.06s32.07,72.06,71.64,72.06,71.63-32.27,71.63-72.06-32.07-72.06-71.63-72.06m0-31.02c56.6,0,102.65,46.24,102.65,103.08s-46.05,103.08-102.65,103.08-102.65-46.24-102.65-103.08,46.05-103.08,102.65-103.08h0Z"/></svg>